<?xml version="1.0" encoding="utf-8"?>
<!-- Generator: Adobe Illustrator 15.0.0, SVG Export Plug-In . SVG Version: 6.00 Build 0)  -->
<!DOCTYPE svg PUBLIC "-//W3C//DTD SVG 1.1//EN" "http://www.w3.org/Graphics/SVG/1.1/DTD/svg11.dtd">
<svg version="1.1" id="Layer_1" xmlns="http://www.w3.org/2000/svg" xmlns:xlink="http://www.w3.org/1999/xlink" x="0px" y="0px"
	 width="217.858px" height="143.864px" viewBox="0 0 217.858 143.864" enable-background="new 0 0 217.858 143.864"
	 xml:space="preserve">
<path fill="#FFFFFF" d="M176.611,71.352c0,37.361-30.289,67.65-67.655,67.65c-37.396,0-67.671-30.289-67.671-67.65
	c0-37.369,30.274-67.637,67.671-67.637C146.322,3.715,176.611,33.983,176.611,71.352z"/>
<path fill="#48312F" d="M94.683,13.517c0.06,0.185,0.084,0.426,0.084,0.728c0,0.301-0.024,0.569-0.091,0.793
	c-0.069,0.22-0.164,0.345-0.295,0.366c-1.259,0.255-2.508,0.529-3.741,0.831c-0.126,0.039-0.198,0.133-0.198,0.291
	c0.059,8.443,0.107,16.857,0.163,25.289c0,0.132-0.161,0.245-0.481,0.322c-0.329,0.079-0.6,0.126-0.777,0.126
	c-0.227,0-0.487-0.019-0.795-0.061c-0.309-0.035-0.469-0.121-0.469-0.263c-0.054-8.248-0.093-16.489-0.14-24.746
	c0-0.15-0.087-0.203-0.284-0.143c-1.201,0.357-2.403,0.734-3.601,1.155c-0.31,0.111-0.463-0.136-0.463-0.751
	c0-0.637,0.137-1.015,0.424-1.136c3.358-1.267,6.802-2.271,10.292-3.021C94.512,13.264,94.629,13.341,94.683,13.517z"/>
<path fill="#48312F" d="M115.075,42.169c-0.26,0.066-0.549,0.094-0.873,0.094c-0.302,0-0.592-0.027-0.868-0.094
	c-0.265-0.06-0.403-0.151-0.403-0.254c0.017-4.64,0.023-9.27,0.034-13.911c0-0.199-0.097-0.299-0.285-0.299
	c-1.456-0.039-2.912-0.045-4.372-0.041c-0.136,0.002-0.206,0.097-0.206,0.292c0.01,4.61,0.01,9.212,0.01,13.818
	c0,0.146-0.126,0.266-0.38,0.355c-0.264,0.086-0.556,0.133-0.882,0.133c-0.335,0-0.617-0.019-0.884-0.069
	c-0.26-0.038-0.373-0.134-0.373-0.278c-0.038-9.965-0.049-19.9-0.083-29.858c0-0.086,0.083-0.188,0.252-0.295
	c0.166-0.117,0.507-0.185,1.043-0.19c0.487-0.02,0.835,0.022,1.016,0.122c0.187,0.104,0.28,0.204,0.28,0.314
	c0,4.351,0,8.697,0.001,13.037c0,0.217,0.084,0.314,0.245,0.314c1.451-0.016,2.896,0,4.345,0.045c0.186,0,0.277-0.081,0.277-0.255
	c0.015-4.361,0.037-8.733,0.037-13.093c0-0.073,0.099-0.166,0.323-0.25c0.201-0.095,0.531-0.134,0.965-0.095
	c0.856,0.055,1.293,0.259,1.293,0.577c-0.046,9.871-0.093,19.717-0.129,29.591C115.458,42.015,115.334,42.11,115.075,42.169z"/>
<path fill="#48312F" d="M134.688,40.34c0.066,0.101,0.116,0.356,0.116,0.773c0,0.399-0.05,0.647-0.127,0.768
	c-0.08,0.126-0.178,0.189-0.284,0.189c-2.395-0.011-4.79-0.033-7.182-0.056c-0.219,0-0.322-0.094-0.312-0.286
	c0.055-9.122,0.119-18.234,0.18-27.356c0-0.239,0.122-0.332,0.364-0.271c2.339,0.621,4.627,1.356,6.895,2.21
	c0.13,0.05,0.232,0.184,0.304,0.38c0.088,0.205,0.113,0.429,0.113,0.671c0,0.229-0.025,0.423-0.095,0.607
	c-0.062,0.19-0.16,0.259-0.283,0.215c-1.519-0.536-3.054-1.029-4.606-1.46c-0.167-0.039-0.235,0.021-0.235,0.182
	c-0.028,3.304-0.044,6.614-0.072,9.924c0,0.16,0.072,0.249,0.215,0.273c1.418,0.224,2.837,0.478,4.251,0.768
	c0.07,0.019,0.169,0.085,0.254,0.218c0.098,0.123,0.137,0.399,0.137,0.819c0,0.422-0.039,0.671-0.137,0.767
	c-0.098,0.107-0.19,0.141-0.298,0.122c-1.379-0.241-2.756-0.45-4.146-0.659c-0.19-0.024-0.291,0.07-0.291,0.278
	c-0.022,3.447-0.034,6.905-0.054,10.358c0,0.193,0.098,0.28,0.284,0.285c1.562,0.032,3.121,0.09,4.68,0.124
	C134.483,40.184,134.597,40.238,134.688,40.34z"/>
<path fill="#48312F" d="M75.783,90.209c1.321,0.005,2.334,0.312,3.006,0.941c0.684,0.646,1.017,1.681,0.986,3.119
	c-0.178,8.52-0.353,17.033-0.533,25.539c-0.031,1.465-0.385,2.381-1.071,2.741c-0.686,0.362-1.667,0.201-2.93-0.471
	c-2.048-1.114-4.043-2.317-6.002-3.611c-0.279-0.191-0.413-0.417-0.413-0.686c0-9.089,0-18.183,0-27.278
	c0-0.222,0.112-0.325,0.359-0.319C71.39,90.198,73.576,90.204,75.783,90.209z M76.912,94.1c0-0.437-0.118-0.814-0.358-1.112
	c-0.24-0.312-0.599-0.473-1.098-0.488c-1.204-0.059-2.403-0.104-3.591-0.155c-0.181-0.01-0.267,0.072-0.267,0.241
	c-0.067,8.232-0.14,16.463-0.209,24.688c0,0.268,0.101,0.437,0.284,0.552c1.107,0.624,2.226,1.225,3.361,1.793
	c0.456,0.226,0.809,0.238,1.05,0.006c0.245-0.229,0.369-0.62,0.38-1.14C76.609,110.357,76.75,102.239,76.912,94.1z"/>
<path fill="#48312F" d="M93.51,89.98c1.084,0,1.803,0.218,2.179,0.627c0.384,0.416,0.586,0.906,0.654,1.47
	c0,0.074,0.041,0.677,0.128,1.785c0.093,1.107,0.206,2.546,0.333,4.312c0.132,1.766,0.278,3.759,0.456,5.987
	c0.178,2.227,0.347,4.514,0.543,6.848c0.186,2.345,0.366,4.635,0.541,6.889c0.182,2.245,0.344,4.254,0.484,6.041
	c0.131,1.777,0.246,3.203,0.323,4.296c0.082,1.07,0.124,1.642,0.124,1.681c0.036,0.076-0.051,0.166-0.27,0.272
	c-0.197,0.095-0.597,0.103-1.166,0.015c-0.571-0.105-0.95-0.232-1.127-0.377c-0.175-0.148-0.271-0.257-0.312-0.346
	c0-0.028-0.029-0.461-0.1-1.257c-0.07-0.812-0.14-1.69-0.222-2.656c-0.074-0.96-0.151-1.843-0.218-2.643
	c-0.074-0.804-0.104-1.267-0.104-1.374c-0.025-0.263-0.135-0.422-0.32-0.452c-1.57-0.249-3.148-0.555-4.703-0.902
	c-0.249-0.058-0.389,0.014-0.434,0.229c0,0.071-0.05,0.479-0.165,1.219c-0.107,0.739-0.213,1.548-0.314,2.431
	c-0.12,0.88-0.218,1.696-0.312,2.458c-0.1,0.753-0.146,1.143-0.146,1.181c-0.033,0.102-0.143,0.171-0.313,0.237
	c-0.169,0.055-0.568-0.018-1.192-0.221c-0.621-0.201-0.996-0.381-1.163-0.517c-0.153-0.146-0.203-0.264-0.164-0.356
	c0-0.035,0.056-0.532,0.161-1.488c0.119-0.966,0.277-2.23,0.488-3.809c0.195-1.57,0.418-3.375,0.664-5.408
	c0.242-2.048,0.496-4.149,0.755-6.316c0.261-2.162,0.518-4.286,0.779-6.361c0.259-2.088,0.475-3.977,0.667-5.645
	c0.187-1.672,0.348-3.027,0.47-4.061c0.13-1.023,0.196-1.584,0.196-1.649c0.06-0.621,0.305-1.136,0.678-1.528
	C91.765,90.195,92.466,89.98,93.51,89.98z M95.104,118.051c0.25,0.036,0.34-0.13,0.289-0.511c0-0.052-0.039-0.513-0.109-1.406
	c-0.084-0.897-0.183-2.047-0.312-3.443c-0.113-1.406-0.247-2.961-0.396-4.657c-0.145-1.705-0.286-3.36-0.426-4.966
	c-0.146-1.608-0.272-3.099-0.37-4.447c-0.103-1.347-0.176-2.364-0.224-3.071c-0.024-0.294-0.063-0.43-0.089-0.388
	c-0.034,0.039-0.066,0.156-0.096,0.388c-0.078,0.697-0.189,1.705-0.355,3.033c-0.162,1.326-0.328,2.767-0.519,4.334
	c-0.177,1.58-0.378,3.175-0.599,4.809c-0.213,1.634-0.405,3.104-0.568,4.444c-0.158,1.326-0.308,2.417-0.409,3.272
	c-0.11,0.865-0.173,1.307-0.173,1.349c0,0.33,0.094,0.513,0.274,0.548C92.38,117.599,93.738,117.852,95.104,118.051z"/>
<path fill="#48312F" d="M109.074,131.164c-1.034-0.009-1.553-0.201-1.553-0.544c0.029-13.336,0.061-26.669,0.074-39.987
	c0-0.159,0.113-0.299,0.331-0.435c0.207-0.146,0.579-0.218,1.099-0.218c0.525,0,0.898,0.072,1.131,0.218
	c0.227,0.136,0.345,0.275,0.345,0.435c0.022,13.296,0.046,26.579,0.068,39.869C110.569,130.932,110.067,131.164,109.074,131.164z"/>
<path fill="#48312F" d="M130.594,105.923c0.003,0.571-0.143,1.187-0.455,1.844c-0.312,0.647-0.784,1.031-1.402,1.136
	c0.618-0.104,1.095,0.08,1.43,0.519c0.33,0.458,0.5,0.936,0.528,1.469c0.11,5.362,0.213,10.729,0.332,16.083
	c0,0.399-0.461,0.756-1.391,1.045c-0.436,0.149-0.786,0.191-1.087,0.155c-0.281-0.006-0.425-0.13-0.431-0.31
	c-0.091-5.42-0.206-10.842-0.305-16.258c-0.007-0.294-0.052-0.535-0.135-0.716c-0.07-0.191-0.286-0.252-0.631-0.208
	c-1.426,0.213-2.868,0.4-4.304,0.555c-0.212,0.034-0.316,0.139-0.316,0.323c0.082,5.884,0.168,11.746,0.258,17.617
	c0,0.116-0.137,0.267-0.401,0.45c-0.268,0.179-0.619,0.313-1.074,0.386c-0.438,0.086-0.806,0.083-1.073,0
	c-0.275-0.094-0.422-0.217-0.422-0.367c-0.14-12.988-0.297-25.986-0.468-38.965c0-0.275,0.126-0.408,0.374-0.408
	c2.478,0,4.937,0,7.408-0.019c1.081,0,1.889,0.427,2.454,1.227c0.547,0.814,0.836,1.713,0.862,2.665
	C130.422,98.076,130.496,102.003,130.594,105.923z M126.438,107.896c0.867-0.116,1.297-0.677,1.27-1.69
	c-0.073-3.862-0.149-7.721-0.222-11.573c0-0.4-0.113-0.771-0.324-1.091c-0.194-0.32-0.588-0.466-1.122-0.466
	c-1.204,0.019-2.38,0.052-3.565,0.064c-0.214,0-0.317,0.129-0.317,0.347c0.068,4.84,0.145,9.687,0.213,14.519
	c0,0.232,0.096,0.329,0.295,0.308C123.919,108.202,125.175,108.053,126.438,107.896z"/>
<path fill="#48312F" d="M148.294,89.98c0.925,0,1.34,0.146,1.252,0.441c-0.057,0.19-0.169,0.547-0.327,1.082
	c-0.151,0.533-0.33,1.173-0.535,1.926c-0.211,0.753-0.439,1.586-0.686,2.51c-0.267,0.916-0.516,1.877-0.78,2.848
	c-0.588,2.268-1.21,4.85-1.896,7.752c-0.051,0.17-0.083,0.369-0.083,0.608c0.056,4.368,0.113,8.736,0.169,13.094
	c0,0.117,0,0.222,0,0.316c0.008,0.089-0.113,0.251-0.342,0.49c-0.221,0.239-0.52,0.458-0.896,0.671
	c-0.397,0.23-0.719,0.342-0.943,0.349c-0.213,0.013-0.328-0.052-0.328-0.2c-0.008-0.094-0.008-0.187-0.008-0.285
	c-0.076-4.521-0.143-9.067-0.231-13.607c0-0.156,0-0.249,0-0.266c0-0.041-0.019-0.113-0.052-0.221
	c-0.818-2.637-1.58-5.154-2.262-7.504c-0.292-1.018-0.585-2.03-0.891-3.043c-0.283-1.013-0.559-1.964-0.809-2.825
	c-0.246-0.865-0.453-1.616-0.624-2.265c-0.16-0.654-0.281-1.096-0.343-1.33c-0.106-0.358,0.313-0.541,1.236-0.541
	c0.877-0.055,1.366,0.052,1.43,0.332c1.139,3.991,2.246,7.78,3.349,11.369c0.057,0.145,0.122,0.147,0.181,0.016
	c0.484-1.989,0.963-3.947,1.447-5.838c0.441-1.649,0.958-3.515,1.55-5.537C146.943,90.042,147.405,89.931,148.294,89.98z"/>
<path fill="#48312F" d="M109.195,140.305c-18.368,0-35.683-7.151-48.644-20.144C47.57,107.17,40.411,89.903,40.411,71.526
	c0-18.34,7.159-35.629,20.141-48.604C73.513,9.93,90.827,2.781,109.195,2.781c18.373,0,35.637,7.149,48.622,20.141
	c12.996,12.976,20.153,30.265,20.153,48.604c0,18.377-7.157,35.645-20.153,48.636C144.832,133.154,127.568,140.305,109.195,140.305z
	 M109.195,5.436c-36.49,0-66.134,29.646-66.134,66.09c0,36.467,29.644,66.123,66.134,66.123c36.46,0,66.119-29.656,66.119-66.123
	C175.314,35.083,145.655,5.436,109.195,5.436z"/>
<path fill="#48312F" d="M109.195,136.267c-17.284,0-33.605-6.73-45.79-18.961c-12.221-12.228-18.956-28.481-18.956-45.78
	c0-17.267,6.735-33.532,18.956-45.743C75.59,13.553,91.911,6.818,109.195,6.818s33.553,6.735,45.774,18.965
	c12.223,12.211,18.957,28.477,18.957,45.743c0,17.299-6.734,33.553-18.957,45.78C142.748,129.537,126.479,136.267,109.195,136.267z
	 M109.195,8.151c-35.012,0-63.427,28.425-63.427,63.375c0,34.969,28.415,63.411,63.427,63.411c34.973,0,63.411-28.442,63.411-63.411
	C172.606,36.576,144.168,8.151,109.195,8.151z"/>
<path fill="#66C1BF" d="M214.649,103.279c0-0.034,0-0.066-0.01-0.09c0-0.016,0-0.04,0-0.069c-0.003-0.016-0.007-0.031-0.015-0.052
	c-0.012-0.03-0.02-0.063-0.036-0.095c0-0.005,0-0.005,0-0.005L203.97,79.333l8.771-19.896c0.104-0.232,0.082-0.517-0.068-0.727
	c-0.14-0.226-0.39-0.358-0.649-0.358h-18.155l-0.021-3.856c0-0.745-0.344-1.438-0.995-2.075c-3.588-3.517-18.802-5.688-45.187-6.457
	c-19.266-0.539-37.771-0.125-38.47-0.107c-0.689-0.018-19.199-0.429-38.482,0.14c-26.386,0.759-41.594,2.944-45.188,6.47
	c-0.655,0.634-0.989,1.338-0.989,2.073l-0.021,3.865H6.353c-0.265,0-0.506,0.137-0.648,0.348c-0.148,0.229-0.17,0.505-0.056,0.737
	l8.763,19.891L3.784,103.019l0,0c-0.017,0.022-0.017,0.069-0.033,0.091c-0.006,0.024-0.017,0.043-0.017,0.063
	c-0.006,0.016-0.006,0.038-0.006,0.061c-0.009,0.041-0.009,0.055-0.009,0.094c0,0-0.005,0.006-0.005,0.009
	c0,0.021,0.005,0.03,0.005,0.049c0,0.029,0.009,0.068,0.009,0.097c0.006,0.027,0.017,0.046,0.022,0.071
	c0.006,0.02,0.017,0.05,0.021,0.064c0.013,0.034,0.024,0.061,0.04,0.076c0.006,0.029,0.02,0.048,0.032,0.059
	c0.007,0.029,0.032,0.041,0.047,0.068c0.016,0.021,0.031,0.033,0.051,0.056c0.009,0.014,0.036,0.035,0.055,0.058
	c0.022,0.006,0.041,0.025,0.044,0.041c0.036,0.012,0.067,0.029,0.097,0.051c0.011,0.01,0.021,0.01,0.045,0.019c0,0,0,0,0.007,0
	c0.032,0.023,0.073,0.03,0.122,0.042c0.013,0.01,0.021,0.01,0.028,0.01c0.025,0.015,0.046,0.015,0.083,0.018
	c0.021,0,0.052,0,0.066,0l0,0c0.863,0,2.306,0.016,4.129,0.058c3.166,0.052,7.366,0.121,11.603,0.121
	c6.829,0,13.732-0.179,16.508-0.907c1.75-0.453,2.899-0.886,3.075-2.793c0.018-0.221,0.018-0.427,0-0.623V89.415
	c6.728-0.979,16.581-1.835,30.939-2.328c19.52-0.679,38.25-0.358,38.468-0.354c0.191-0.005,18.914-0.342,38.416,0.323
	c14.365,0.499,24.221,1.34,30.947,2.322v10.53c-0.015,0.202-0.015,0.414,0,0.625c0.173,1.917,1.331,2.358,3.073,2.803
	c4.493,1.18,19.858,0.918,28.105,0.789c1.831-0.029,3.285-0.054,4.128-0.054l0,0c0.027,0,0.058-0.004,0.075-0.004
	c0.023-0.015,0.057-0.015,0.09-0.023c0,0,0.016,0,0.021,0c0.045-0.009,0.083-0.019,0.133-0.04l0,0
	c0.02-0.018,0.032-0.026,0.047-0.029c0.021-0.016,0.053-0.035,0.075-0.041c0.023-0.022,0.041-0.044,0.062-0.058
	c0.023-0.002,0.049-0.027,0.059-0.042c0.014-0.027,0.041-0.041,0.056-0.06c0.001-0.022,0.024-0.033,0.041-0.066
	c0.009-0.015,0.017-0.036,0.03-0.057c0.006-0.034,0.021-0.049,0.031-0.079c0.014-0.016,0.019-0.038,0.025-0.063
	c0.008-0.027,0.015-0.048,0.015-0.075c0-0.029,0.01-0.058,0.01-0.098c0-0.018,0.011-0.029,0.011-0.048L214.649,103.279z"/>
<path fill="#48312F" d="M214.497,103.775c0.001-0.022,0.024-0.033,0.041-0.066c0.009-0.015,0.017-0.036,0.03-0.057
	c0.006-0.034,0.021-0.049,0.031-0.079c0.014-0.016,0.019-0.038,0.025-0.063c0.008-0.027,0.015-0.048,0.015-0.075
	c0-0.029,0.01-0.058,0.01-0.098c0-0.018,0.011-0.029,0.011-0.048l-0.011-0.01c0-0.034,0-0.066-0.01-0.09c0-0.016,0-0.04,0-0.069
	c-0.003-0.016-0.007-0.031-0.015-0.052c-0.012-0.03-0.02-0.063-0.036-0.095c0-0.005,0-0.005,0-0.005L203.97,79.333l8.771-19.896
	c0.104-0.232,0.082-0.517-0.068-0.727c-0.14-0.226-0.39-0.358-0.649-0.358h-18.155l-0.021-3.856c0-0.745-0.344-1.438-0.995-2.075
	c-3.588-3.517-18.802-5.688-45.187-6.457c-19.266-0.539-37.771-0.125-38.47-0.107c-0.689-0.018-19.199-0.429-38.482,0.14
	c-26.386,0.759-41.594,2.944-45.188,6.47c-0.655,0.634-0.989,1.338-0.989,2.073l-0.021,3.865H6.353
	c-0.265,0-0.506,0.137-0.648,0.348c-0.148,0.229-0.17,0.505-0.056,0.737l8.763,19.891L3.784,103.019l0,0
	c-0.017,0.022-0.017,0.069-0.033,0.091c-0.006,0.024-0.017,0.043-0.017,0.063c-0.006,0.016-0.006,0.038-0.006,0.061
	c-0.009,0.041-0.009,0.055-0.009,0.094c0,0-0.005,0.006-0.005,0.009c0,0.021,0.005,0.03,0.005,0.049
	c0,0.029,0.009,0.068,0.009,0.097c0.006,0.027,0.017,0.046,0.022,0.071c0.006,0.02,0.017,0.05,0.021,0.064
	c0.013,0.034,0.024,0.061,0.04,0.076c0.006,0.029,0.02,0.048,0.032,0.059c0.007,0.029,0.032,0.041,0.047,0.068
	c0.016,0.021,0.031,0.033,0.051,0.056c0.009,0.014,0.036,0.035,0.055,0.058c0.022,0.006,0.041,0.025,0.044,0.041
	c0.036,0.012,0.067,0.029,0.097,0.051c0.011,0.01,0.021,0.01,0.045,0.019c0,0,0,0,0.007,0c0.032,0.023,0.073,0.03,0.122,0.042
	c0.013,0.01,0.021,0.01,0.028,0.01c0.025,0.015,0.046,0.015,0.083,0.018c0.021,0,0.052,0,0.066,0l0,0
	c0.863,0,2.306,0.016,4.129,0.058c3.166,0.052,7.366,0.121,11.603,0.121c6.829,0,13.732-0.179,16.508-0.907
	c1.75-0.453,2.899-0.886,3.075-2.793c0.018-0.221,0.018-0.427,0-0.623V89.415c6.728-0.979,16.581-1.835,30.939-2.328
	c19.52-0.679,38.25-0.358,38.468-0.354c0.191-0.005,18.914-0.342,38.416,0.323c14.365,0.499,24.221,1.34,30.947,2.322v10.53
	c-0.015,0.202-0.015,0.414,0,0.625c0.173,1.917,1.331,2.358,3.073,2.803c4.493,1.18,19.858,0.918,28.105,0.789
	c1.831-0.029,3.285-0.054,4.128-0.054l0,0c0.027,0,0.058-0.004,0.075-0.004c0.023-0.015,0.057-0.015,0.09-0.023c0,0,0.016,0,0.021,0
	c0.045-0.009,0.083-0.019,0.133-0.04l0,0c0.02-0.018,0.032-0.026,0.047-0.029c0.021-0.016,0.053-0.035,0.075-0.041
	c0.023-0.022,0.041-0.044,0.062-0.058c0.023-0.002,0.049-0.027,0.059-0.042C214.455,103.807,214.482,103.793,214.497,103.775z
	 M36.335,101.877c-4.284,1.121-20.093,0.864-27.688,0.735c-1.154-0.019-2.15-0.038-2.942-0.054L15.976,79.7
	c0.086-0.199,0.086-0.425,0-0.642L7.541,59.961h16.961v34.447c0,0.168,0.051,0.318,0.142,0.441c0.991,2.81,3.404,3.095,5.738,3.368
	c0.609,0.069,1.223,0.127,1.817,0.25c0.534,0.086,1.188,0.125,1.888,0.152c1.465,0.069,3.283,0.155,3.921,0.883
	c0.098,0.112,0.199,0.273,0.231,0.552v0.361c0,0.015,0,0.024,0,0.036l0,0C38.182,101.187,38.16,101.399,36.335,101.877z
	 M38.239,97.784c-1.128-0.58-2.674-0.653-4.084-0.717c-0.64-0.024-1.249-0.058-1.677-0.133c-0.646-0.124-1.277-0.194-1.902-0.27
	c-2.457-0.275-3.888-0.536-4.496-2.446c0.02-0.287,0.196-0.58,0.501-0.886c1.188-1.164,4.329-2.497,11.658-3.685V97.784z
	 M109.21,85.18c-0.185-0.003-18.956-0.334-38.516,0.347c-13.442,0.462-23.98,1.281-31.564,2.437c-0.041,0-0.069-0.015-0.112-0.015
	c-0.119,0-0.227,0.029-0.337,0.084c-6.369,0.995-10.589,2.222-12.613,3.7V59.23l0.032-4.685c0-0.315,0.177-0.633,0.518-0.97
	c2.261-2.213,11.762-5.075,44.134-6.031c19.511-0.56,38.241-0.122,38.431-0.121c0.006,0,0.028,0,0.028,0
	c0.191-0.001,18.908-0.458,38.407,0.104c32.375,0.932,41.877,3.793,44.146,6.001c0.346,0.338,0.512,0.664,0.512,0.977l0.041,4.686
	V91.7c-2.034-1.485-6.234-2.719-12.608-3.703c-0.102-0.065-0.228-0.1-0.354-0.1c-0.042,0-0.087,0.015-0.122,0.021
	c-7.591-1.148-18.119-1.951-31.553-2.409C128.146,84.837,109.375,85.177,109.21,85.18z M191.795,93.286
	c0.314,0.307,0.48,0.595,0.502,0.888c-0.598,1.898-2.041,2.161-4.485,2.453c-0.621,0.071-1.265,0.132-1.913,0.25
	c-0.426,0.084-1.039,0.112-1.671,0.145c-1.405,0.066-2.955,0.144-4.084,0.707v-8.12C187.458,90.786,190.616,92.124,191.795,93.286z
	 M209.733,102.559c-7.601,0.136-23.412,0.398-27.697-0.73c-1.806-0.465-1.846-0.688-1.897-1.428c0-0.012,0.005-0.012,0.005-0.029
	v-0.362c0.034-0.276,0.136-0.449,0.226-0.55c0.631-0.72,2.457-0.815,3.931-0.884c0.69-0.034,1.345-0.057,1.881-0.156
	c0.601-0.116,1.208-0.177,1.802-0.252c2.347-0.275,4.758-0.563,5.735-3.366c0.093-0.109,0.149-0.274,0.149-0.443V59.909h16.963
	l-8.438,19.111c-0.076,0.204-0.076,0.433,0.013,0.636l10.279,22.869C211.883,102.53,210.878,102.55,209.733,102.559z"/>
<path fill="#FFFFFF" d="M51.647,55.713c0.661-0.035,1.059,0.303,1.224,0.895c1.052,3.436,2.087,6.877,3.11,10.306
	c0.089,0.358,0.381,0.346,0.447-0.02c0.685-3.52,1.396-7.035,2.096-10.548c0.136-0.61,0.469-0.986,1.14-1.014
	c2.53-0.114,5.073-0.21,7.611-0.309c0.73-0.027,1.106,0.312,1.137,1.025c0.273,7.655,0.548,15.307,0.827,22.942
	c0.013,0.703-0.325,1.104-1.05,1.126c-1.334,0.049-2.671,0.097-4.007,0.157c-0.694,0.033-1.1-0.355-1.125-1.031
	c-0.212-4.707-0.405-9.419-0.597-14.129c-0.006-0.253-0.327-0.271-0.398-0.023c-0.98,4.825-1.94,9.647-2.886,14.467
	c-0.113,0.614-0.494,0.95-1.136,0.982c-0.789,0.04-1.574,0.078-2.364,0.118c-0.656,0.021-1.053-0.273-1.243-0.88
	c-1.4-4.701-2.801-9.406-4.248-14.118c-0.072-0.247-0.406-0.185-0.387,0.069c0.242,4.694,0.505,9.411,0.765,14.109
	c0.034,0.687-0.31,1.095-1.026,1.138c-1.346,0.068-2.68,0.15-4.016,0.222c-0.717,0.05-1.103-0.328-1.133-1
	c-0.459-7.651-0.922-15.294-1.377-22.929c-0.041-0.716,0.304-1.094,1.032-1.146C46.573,55.98,49.12,55.84,51.647,55.713z"/>
<path fill="#FFFFFF" d="M93.551,54.398c0.738-0.012,1.109,0.339,1.117,1.05c0.008,1.343,0.026,2.672,0.039,4.012
	c0.013,0.684-0.352,1.076-1.08,1.085c-2.954,0.038-5.904,0.085-8.857,0.144c-0.692,0.018-1.088,0.38-1.066,1.094
	c0.007,0.387,0.021,0.772,0.028,1.157c0.006,0.675,0.414,1.07,1.11,1.056c1.89-0.036,3.765-0.07,5.645-0.099
	c0.73-0.014,1.107,0.346,1.113,1.062c0.017,1.332,0.028,2.672,0.048,4.016c0.026,0.68-0.334,1.082-1.065,1.088
	c-1.874,0.036-3.754,0.058-5.628,0.104c-0.676,0.008-1.067,0.38-1.042,1.093c0,0.391,0.007,0.772,0.02,1.152
	c0.012,0.677,0.415,1.06,1.103,1.049c2.924-0.058,5.82-0.107,8.745-0.139c0.721-0.01,1.09,0.349,1.093,1.07
	c0.013,1.339,0.021,2.673,0.044,4.012c0.011,0.72-0.346,1.079-1.068,1.088c-5.021,0.066-10.047,0.164-15.107,0.287
	c-0.696,0.019-1.095-0.363-1.116-1.041c-0.215-7.655-0.42-15.312-0.64-22.955c-0.015-0.707,0.374-1.074,1.089-1.097
	C83.253,54.545,88.402,54.454,93.551,54.398z"/>
<path fill="#FFFFFF" d="M122.248,77.605c0.49,0.947-0.103,1.947-1.206,1.93c-1.374-0.024-2.728-0.043-4.112-0.061
	c-0.352,0-0.669-0.176-0.812-0.505c-1.222-2.411-2.45-4.822-3.694-7.247c-0.07-0.112-0.178-0.173-0.287-0.173
	c-0.478-0.012-0.957-0.012-1.45-0.012c-0.644-0.003-1.107,0.459-1.122,1.109c-0.014,1.89-0.014,3.775-0.014,5.668
	c-0.002,0.646-0.477,1.113-1.118,1.113c-1.344,0-2.686,0-4.021,0c-0.646,0-1.12-0.467-1.122-1.113
	c-0.02-7.639-0.031-15.264-0.056-22.887c0-0.639,0.471-1.114,1.131-1.114c2.684,0,5.366,0,8.059,0.026
	c6.553,0.046,9.158,2.807,9.07,8.684c-0.058,3.35-0.916,5.659-2.863,7.002c-0.138,0.107-0.171,0.284-0.116,0.475
	C119.773,72.859,121.016,75.24,122.248,77.605z M110.738,60.488c-0.656,0-1.134,0.466-1.134,1.097c0,0.889,0,1.781-0.013,2.673
	c0,0.632,0.476,1.109,1.13,1.111c0.612,0,1.238,0.005,1.867,0.005c1.733,0.015,2.605-0.194,2.619-2.426
	c0.037-2.222-0.85-2.439-2.601-2.454C111.986,60.492,111.362,60.492,110.738,60.488z"/>
<path fill="#FFFFFF" d="M148.625,78.357c0.458,0.95-0.152,1.942-1.274,1.897c-1.358-0.056-2.72-0.112-4.089-0.158
	c-0.354-0.015-0.67-0.202-0.813-0.528c-1.147-2.455-2.321-4.905-3.498-7.341c-0.069-0.111-0.177-0.192-0.282-0.192
	c-0.479-0.011-0.958-0.031-1.439-0.042c-0.646-0.011-1.135,0.438-1.157,1.085c-0.046,1.878-0.104,3.766-0.173,5.66
	c-0.005,0.643-0.495,1.102-1.145,1.077c-1.333-0.036-2.668-0.066-4.018-0.098c-0.64-0.018-1.092-0.493-1.081-1.136
	c0.176-7.64,0.348-15.257,0.522-22.889c0.016-0.637,0.502-1.08,1.172-1.073c2.676,0.06,5.365,0.14,8.044,0.216
	c6.554,0.21,9.082,3.052,8.851,8.927c-0.142,3.345-1.076,5.632-3.048,6.92c-0.144,0.105-0.188,0.284-0.108,0.475
	C146.261,73.546,147.449,75.957,148.625,78.357z M137.551,60.954c-0.651-0.032-1.143,0.429-1.162,1.069
	c-0.021,0.89-0.052,1.766-0.073,2.652c-0.019,0.649,0.441,1.13,1.094,1.157c0.613,0.013,1.237,0.036,1.858,0.052
	c1.74,0.057,2.621-0.127,2.698-2.355c0.086-2.22-0.784-2.467-2.547-2.521C138.802,60.977,138.178,60.962,137.551,60.954z"/>
<path fill="#FFFFFF" d="M160.812,55.724c0.63,0.037,1.014,0.31,1.201,0.884c0.792,2.278,1.577,4.552,2.345,6.815
	c0.144,0.327,0.356,0.351,0.521,0.033c1.013-2.171,2.045-4.345,3.094-6.51c0.246-0.556,0.665-0.786,1.3-0.737
	c1.751,0.093,3.495,0.2,5.24,0.32c0.847,0.055,1.18,0.574,0.767,1.304c-2.512,4.63-4.987,9.273-7.42,13.913
	c-0.074,0.141-0.081,0.285-0.102,0.426c-0.147,2.66-0.312,5.322-0.471,7.99c-0.043,0.675-0.421,1.062-1.136,1.011
	c-1.683-0.096-3.346-0.195-5.026-0.272c-0.684-0.039-1.053-0.453-1.021-1.146c0.147-2.66,0.284-5.322,0.428-7.993
	c0.005-0.141,0.009-0.285-0.053-0.429c-1.927-4.895-3.882-9.782-5.857-14.652c-0.34-0.764,0.048-1.252,0.905-1.213
	C157.277,55.547,159.05,55.631,160.812,55.724z"/>
<text transform="matrix(1 0 0 1 175.1279 44.6401)" fill="#48312F" font-family="'MyriadPro-Regular'" font-size="8.3712">TM</text>
</svg>
